<svg id="barcode" width="402px" height="142px" x="0px" y="0px" viewBox="0 0 402 142" xmlns="http://www.w3.org/2000/svg" version="1.1" style="transform: translate(0px, 0px);"><rect x="0" y="0" width="402" height="142" style="fill:#ffffff;"/><g transform="translate(10, 10)" style="fill:#000000;"><rect x="0" y="0" width="2" height="100"/><rect x="4" y="0" width="4" height="100"/><rect x="12" y="0" width="2" height="100"/><rect x="18" y="0" width="2" height="100"/><rect x="22" y="0" width="2" height="100"/><rect x="26" y="0" width="2" height="100"/><rect x="30" y="0" width="2" height="100"/><rect x="36" y="0" width="4" height="100"/><rect x="42" y="0" width="2" height="100"/><rect x="46" y="0" width="2" height="100"/><rect x="50" y="0" width="2" height="100"/><rect x="56" y="0" width="4" height="100"/><rect x="62" y="0" width="2" height="100"/><rect x="66" y="0" width="2" height="100"/><rect x="70" y="0" width="2" height="100"/><rect x="76" y="0" width="4" height="100"/><rect x="82" y="0" width="2" height="100"/><rect x="86" y="0" width="2" height="100"/><rect x="90" y="0" width="2" height="100"/><rect x="96" y="0" width="4" height="100"/><rect x="102" y="0" width="2" height="100"/><rect x="106" y="0" width="2" height="100"/><rect x="110" y="0" width="2" height="100"/><rect x="116" y="0" width="4" height="100"/><rect x="122" y="0" width="2" height="100"/><rect x="126" y="0" width="2" height="100"/><rect x="130" y="0" width="2" height="100"/><rect x="136" y="0" width="4" height="100"/><rect x="142" y="0" width="2" height="100"/><rect x="146" y="0" width="2" height="100"/><rect x="150" y="0" width="2" height="100"/><rect x="156" y="0" width="4" height="100"/><rect x="162" y="0" width="2" height="100"/><rect x="166" y="0" width="2" height="100"/><rect x="170" y="0" width="2" height="100"/><rect x="176" y="0" width="4" height="100"/><rect x="182" y="0" width="2" height="100"/><rect x="186" y="0" width="2" height="100"/><rect x="190" y="0" width="2" height="100"/><rect x="196" y="0" width="4" height="100"/><rect x="202" y="0" width="2" height="100"/><rect x="206" y="0" width="2" height="100"/><rect x="210" y="0" width="2" height="100"/><rect x="216" y="0" width="4" height="100"/><rect x="222" y="0" width="2" height="100"/><rect x="226" y="0" width="2" height="100"/><rect x="230" y="0" width="2" height="100"/><rect x="236" y="0" width="4" height="100"/><rect x="242" y="0" width="2" height="100"/><rect x="246" y="0" width="2" height="100"/><rect x="250" y="0" width="2" height="100"/><rect x="256" y="0" width="4" height="100"/><rect x="262" y="0" width="2" height="100"/><rect x="266" y="0" width="2" height="100"/><rect x="270" y="0" width="2" height="100"/><rect x="276" y="0" width="4" height="100"/><rect x="282" y="0" width="2" height="100"/><rect x="286" y="0" width="2" height="100"/><rect x="290" y="0" width="2" height="100"/><rect x="296" y="0" width="4" height="100"/><rect x="302" y="0" width="2" height="100"/><rect x="306" y="0" width="2" height="100"/><rect x="310" y="0" width="2" height="100"/><rect x="316" y="0" width="4" height="100"/><rect x="322" y="0" width="2" height="100"/><rect x="326" y="0" width="2" height="100"/><rect x="330" y="0" width="2" height="100"/><rect x="336" y="0" width="4" height="100"/><rect x="342" y="0" width="2" height="100"/><rect x="346" y="0" width="2" height="100"/><rect x="350" y="0" width="2" height="100"/><rect x="356" y="0" width="4" height="100"/><rect x="362" y="0" width="2" height="100"/><rect x="366" y="0" width="4" height="100"/><rect x="374" y="0" width="2" height="100"/><rect x="380" y="0" width="2" height="100"/><text style="font: 20px monospace" text-anchor="middle" x="191" y="122">00000000000000000</text></g></svg>